<?xml version="1.0" encoding="UTF-8" standalone="no"?>
<svg
   xmlns:dc="http://purl.org/dc/elements/1.1/"
   xmlns:cc="http://creativecommons.org/ns#"
   xmlns:rdf="http://www.w3.org/1999/02/22-rdf-syntax-ns#"
   xmlns:svg="http://www.w3.org/2000/svg"
   xmlns="http://www.w3.org/2000/svg"
   xmlns:sodipodi="http://sodipodi.sourceforge.net/DTD/sodipodi-0.dtd"
   xmlns:inkscape="http://www.inkscape.org/namespaces/inkscape"
   width="155.09346mm"
   height="26.959902mm"
   viewBox="0 0 155.09346 26.959902"
   version="1.1"
   id="svg4"
   sodipodi:docname="sulzer-logo.svg"
   inkscape:version="0.92.3 (2405546, 2018-03-11)">
  <metadata
     id="metadata10">
    <rdf:RDF>
      <cc:Work
         rdf:about="">
        <dc:format>image/svg+xml</dc:format>
        <dc:type
           rdf:resource="http://purl.org/dc/dcmitype/StillImage" />
      </cc:Work>
    </rdf:RDF>
  </metadata>
  <defs
     id="defs8" />
  <sodipodi:namedview
     pagecolor="#ffffff"
     bordercolor="#666666"
     borderopacity="1"
     objecttolerance="10"
     gridtolerance="10"
     guidetolerance="10"
     inkscape:pageopacity="0"
     inkscape:pageshadow="2"
     inkscape:window-width="1920"
     inkscape:window-height="1137"
     id="namedview6"
     showgrid="false"
     inkscape:zoom="1.6819304"
     inkscape:cx="109.22168"
     inkscape:cy="41.292199"
     inkscape:window-x="-8"
     inkscape:window-y="-8"
     inkscape:window-maximized="1"
     inkscape:current-layer="svg4" />
  <path
     style="fill:#0e4496;fill-opacity:1;stroke-width:0.26458332"
     d="m 33.847799,26.617275 c -2.799903,-0.77656 -4.797449,-2.41545 -5.931582,-4.86657 -0.531009,-1.14763 -0.561012,-1.684632 -0.640088,-11.456673 L 27.193169,0.041428 h 4.514733 4.514737 v 9.346587 9.346588 l 0.612365,0.575287 c 0.553688,0.520162 0.897101,0.575287 3.583903,0.575287 2.802186,0 3.008548,-0.03701 3.620965,-0.649432 l 0.649433,-0.649431 V 9.313871 0.041428 h 4.365625 4.365625 v 10.308824 c 0,9.754626 -0.02924,10.386983 -0.543988,11.762763 -0.652958,1.74519 -2.440387,3.47466 -4.376349,4.23446 -1.116547,0.4382 -2.127104,0.52049 -7.250496,0.5904 -4.706522,0.0642 -6.256507,-0.003 -7.40192,-0.3206 z M 0.50388655,23.341205 v -3.447787 l 7.47447865,-0.07027 7.4744788,-0.07027 V 18.429961 17.107044 L 10.152875,16.974115 C 5.1238496,16.847981 4.7858256,16.806664 3.5407346,16.165918 2.0153676,15.380937 0.64531155,13.720055 0.21988555,12.140142 c -0.16944,-0.62925 -0.257762,-2.368253 -0.204364,-4.02377 0.08623,-2.673497 0.161135,-3.034046 0.902105,-4.342399 C 1.3620616,2.989222 2.1949246,2.010743 2.7684346,1.599576 4.7007876,0.214211 6.0989156,0.04142 15.376141,0.04142 h 8.411078 v 3.307291 3.307292 h -7.355417 c -7.8610658,0 -7.9904158,0.02142 -7.9904158,1.322916 0,1.241688 0.314916,1.322917 5.1287878,1.322917 5.154662,0 6.730524,0.31241 8.667468,1.718298 0.834709,0.605855 1.458231,1.361169 1.945024,2.356137 0.68677,1.403709 0.712297,1.604642 0.615744,4.846556 -0.07719,2.591678 -0.210623,3.586798 -0.570929,4.257838 -0.716489,1.33439 -2.2665,2.93375 -3.464922,3.57523 -1.04013,0.55674 -1.399406,0.57879 -10.667528,0.65461 l -9.59114445,0.0785 z M 57.124719,13.402886 V 0.041428 h 4.365625 4.365625 v 9.921874 9.921875 h 5.291667 5.291672 v 3.439578 3.43959 h -9.657297 -9.657292 z m 20.902089,9.959219 v -3.402232 l 6.00896,-6.585785 6.00896,-6.585786 -5.87667,-0.07121 -5.87667,-0.07121 V 3.343652 0.041423 h 11.37708 11.377092 v 3.318499 3.3185 l -5.831512,6.537229 -5.83151,6.53723 5.9638,0.07111 5.963802,0.07111 v 3.434614 3.43462 H 89.668468 78.026808 Z M 103.95597,13.402886 V 0.041428 h 10.45104 10.45105 v 3.307291 3.307292 h -6.21771 -6.21771 v 1.5875 1.5875 h 5.29167 5.29166 v 3.175 3.175 h -5.29166 -5.29167 v 1.852083 1.852083 h 6.61458 6.61459 v 3.439578 3.43959 h -10.84792 -10.84792 z m 24.07709,-0.02071 V 0 l 9.32656,0.103834 c 10.4199,0.116007 10.78204,0.171792 12.90359,1.987761 1.79681,1.538 2.37093,3.091756 2.37093,6.416498 0,2.373094 -0.0913,2.970997 -0.62648,4.101042 -0.77248,1.631241 -2.01675,2.841439 -3.67408,3.573469 -0.82153,0.362858 -1.19739,0.668182 -1.07526,0.873449 0.14989,0.251902 2.99885,3.664932 7.71733,9.245272 0.37074,0.43846 0.12485,0.46302 -4.63616,0.46302 h -5.02766 l -4.15429,-5.02709 c -2.28485,-2.76489 -4.3271,-5.027078 -4.53834,-5.027078 -0.32222,0 -0.38406,0.809496 -0.38406,5.027078 v 5.02709 h -4.10104 -4.10104 V 13.382172 Z m 15.92031,-3.195293 c 0.60191,-0.544723 0.6407,-2.130855 0.072,-2.94283 -0.3933,-0.561507 -0.58429,-0.588037 -4.23334,-0.588037 h -3.82145 v 1.984375 1.984375 h 3.74948 c 3.11763,0 3.83101,-0.07379 4.23333,-0.437883 z"
     id="path2"
     inkscape:connector-curvature="0" />
</svg>
